# xmcd
#
# Track frame offsets:
#	150
#	14891
#	34058
#	51883
#	67940
#	85466
#	103878
#	121135
#	138512
#	157974
#	176598
#	192209
#	206239
#	224719
#	244560
#	260744
#
# Disc length: 3789 seconds
#
# Revision: 1
# Processed by: cddbd v1.5.1PL2 Copyright (c) Steve Scherf et al.
# Submitted via: audiograbber 1.83.01
#
DISCID=f30ecb10
DTITLE=Music Maestro Country Hits Of Today Vol 29 - Mm6383
DYEAR=1900
DGENRE=Karaoke
TTITLE0=Rascal Flatts - Love You Out Loud
TTITLE1=Tim Mcgraw - She's My Kind Of Rain
TTITLE2=Toby Keith - Rock You Baby
TTITLE3=Phil Vassar - This Is God
TTITLE4=Jo Dee Messina - Was That My Life
TTITLE5=Jeff Bates - Love Song
TTITLE6=Jimmy Wayne - Stay Gone
TTITLE7=Kellie Coffey - Whatever It Takes
TTITLE8=Travis Tritt - Country Ain't Country
TTITLE9=Garth Brooks - Why Ain't I Running
TTITLE10=Randy Travis - Three Wooden Crosses
TTITLE11=Sammy Kershaw - I Want My Money Back
TTITLE12=Steve Holy - Rock A Bye Heart
TTITLE13=Mark Wills - When You Think Of Me
TTITLE14=Tanya Tucker - Old Weakness (Coming On Strong)
TTITLE15=Kid Rock And Sheryl Crow - Picture (Bonus Track)
EXTD=
EXTT0=
EXTT1=
EXTT2=
EXTT3=
EXTT4=
EXTT5=
EXTT6=
EXTT7=
EXTT8=
EXTT9=
EXTT10=
EXTT11=
EXTT12=
EXTT13=
EXTT14=
EXTT15=
PLAYORDER=
